<svg xmlns="http://www.w3.org/2000/svg" version="1.1" xmlns:xlink="http://www.w3.org/1999/xlink" xmlns:svgjs="http://svgjs.dev/svgjs" width="1500" height="1500" viewBox="0 0 1500 1500"><rect width="1500" height="1500" fill="#ffffff"></rect><g transform="matrix(0.6666666666666666,0,0,0.6666666666666666,249.39393939393938,438.5856950067477)"><svg viewBox="0 0 396 247" data-background-color="#ffffff" preserveAspectRatio="xMidYMid meet" height="935" width="1500" xmlns="http://www.w3.org/2000/svg" xmlns:xlink="http://www.w3.org/1999/xlink"><g id="tight-bounds" transform="matrix(1,0,0,1,0.2400000000000091,-0.09999999999999432)"><svg viewBox="0 0 395.52 247.2" height="247.2" width="395.52"><g><svg></svg></g><g><svg viewBox="0 0 395.52 247.2" height="247.2" width="395.52"><g><path d="M55.039 247.2l26.403-45.732 1.941 0-25.379 43.959h279.512l-25.379-43.959 1.941 0 26.403 45.732zM197.76 0l26.403 45.732-1.941 0-24.462-42.37-24.462 42.37-1.941 0z" fill="#77d4fc" fill-rule="nonzero" stroke="none" stroke-width="1" stroke-linecap="butt" stroke-linejoin="miter" stroke-miterlimit="10" stroke-dasharray="" stroke-dashoffset="0" font-family="none" font-weight="none" font-size="none" text-anchor="none" style="mix-blend-mode: normal" data-fill-palette-color="tertiary"></path></g><g transform="matrix(1,0,0,1,22.014175279939224,67.97999999999999)"><svg viewBox="0 0 351.49164944012153 111.24" height="111.24" width="351.49164944012153"><g><svg viewBox="0 0 395.52 125.17408271315199" height="111.24" width="351.49164944012153"><g transform="matrix(1,0,0,1,0,93.13568922052363)"><svg viewBox="0 0 395.52 32.038393492628366" height="32.038393492628366" width="395.52"><g id="textblocktransform"><svg viewBox="0 0 395.52 32.038393492628366" height="32.038393492628366" width="395.52" id="textblock"><g><svg viewBox="0 0 395.52 32.038393492628366" height="32.038393492628366" width="395.52"><g transform="matrix(1,0,0,1,0,0)"><svg width="395.52" viewBox="4 -35.01 432.18 35.01" height="32.038393492628366" data-palette-color="#77d4fc"><path d="M26.49-14.99L9.5-14.99Q8.47-14.99 7.56-15.39 6.64-15.8 5.96-16.47 5.27-17.14 4.88-18.05 4.49-18.97 4.49-20L4.49-20 4.49-30Q4.49-31.03 4.88-31.95 5.27-32.86 5.96-33.53 6.64-34.2 7.56-34.61 8.47-35.01 9.5-35.01L9.5-35.01 26.49-35.01Q27.51-35.01 28.43-34.61 29.35-34.2 30.03-33.53 30.71-32.86 31.1-31.95 31.49-31.03 31.49-30L31.49-30 31.49-25.49 26.49-25.49 26.49-30 9.5-30 9.5-20 26.49-20Q27.51-20 28.43-19.6 29.35-19.21 30.03-18.53 30.71-17.85 31.1-16.93 31.49-16.02 31.49-14.99L31.49-14.99 31.49-5Q31.49-3.98 31.1-3.06 30.71-2.15 30.03-1.46 29.35-0.78 28.43-0.39 27.51 0 26.49 0L26.49 0 9.01 0Q7.98 0 7.07-0.39 6.15-0.78 5.47-1.46 4.79-2.15 4.39-3.06 4-3.98 4-5L4-5 4-9.5 9.01-9.5 9.01-5 26.49-5 26.49-14.99ZM40.5-35.01L45.51-35.01 45.51-19.9 62.2-35.01 69.26-35.01 50.31-17.85 70.02 0 62.96 0 45.51-15.75 45.51 0 40.5 0 40.5-35.01ZM71.06-35.01L76.87-35.01 87.06-18.65 97.26-35.01 103.07-35.01 89.57-13.89 89.57 0 84.57 0 84.57-13.89 71.06-35.01ZM133.61-35.01L138.62-35.01 138.62 0 133.61 0 133.61-14.99 113.57-14.99 113.57 0 108.56 0 108.56-35.01 113.57-35.01 113.57-20 133.61-20 133.61-35.01ZM158.1-35.01L163.1-35.01 176.6 0 171.6 0 168.5-8.06 152.7-8.06 149.6 0 144.59 0 158.1-35.01ZM160.61-28.49L154.6-13.06 166.57-13.06 160.61-28.49ZM195.13 0L189.61 0 176.11-35.01 181.48-35.01 192.37-6.2 203.28-35.01 208.63-35.01 195.13 0ZM214.61 0L214.61-35.01 240.12-35.01 240.12-30 219.61-30 219.61-20 237.12-20 237.12-14.99 219.61-14.99 219.61-5 240.12-5 240.12 0 214.61 0ZM252.62-27.15L252.62 0 247.61 0 247.61-35.01 252.62-35.01 273.66-7.86 273.66-35.01 278.67-35.01 278.67 0 273.66 0 252.62-27.15ZM302.64-5L302.64-30Q302.64-31.03 303.03-31.95 303.42-32.86 304.1-33.53 304.79-34.2 305.7-34.61 306.62-35.01 307.64-35.01L307.64-35.01 326.64-35.01Q327.66-35.01 328.58-34.61 329.49-34.2 330.18-33.53 330.86-32.86 331.25-31.95 331.64-31.03 331.64-30L331.64-30 331.64-25.49 326.64-25.49 326.64-30 307.64-30 307.64-5 326.64-5 326.64-9.5 331.64-9.5 331.64-5Q331.64-3.98 331.25-3.06 330.86-2.15 330.18-1.46 329.49-0.78 328.58-0.39 327.66 0 326.64 0L326.64 0 307.64 0Q306.62 0 305.7-0.39 304.79-0.78 304.1-1.46 303.42-2.15 303.03-3.06 302.64-3.98 302.64-5L302.64-5ZM350.15-35.01L355.15-35.01 368.65 0 363.65 0 360.55-8.06 344.75-8.06 341.65 0 336.64 0 350.15-35.01ZM352.66-28.49L346.65-13.06 358.62-13.06 352.66-28.49ZM402.32-26.49L402.32-22.51Q402.32-15.19 396.07-14.16L396.07-14.16 402.66 0 397.12 0 390.62-13.99 379.66-13.99 379.66 0 374.66 0 374.66-35.01 393.82-35.01Q402.32-35.01 402.32-26.49L402.32-26.49ZM379.66-30L379.66-18.99 393.55-18.99Q395.55-18.99 396.43-19.87 397.31-20.75 397.31-22.75L397.31-22.75 397.31-26.25Q397.31-28.25 396.43-29.13 395.55-30 393.55-30L393.55-30 379.66-30ZM410.66 0L410.66-35.01 436.18-35.01 436.18-30 415.67-30 415.67-20 433.17-20 433.17-14.99 415.67-14.99 415.67-5 436.18-5 436.18 0 410.66 0Z" opacity="1" transform="matrix(1,0,0,1,0,0)" fill="#77d4fc" class="wordmark-text-0" data-fill-palette-color="primary" id="text-0"></path></svg></g></svg></g></svg></g></svg></g><g transform="matrix(1,0,0,1,158.7556511719039,0)"><svg viewBox="0 0 78.00869765619217 78.00869765619217" height="78.00869765619217" width="78.00869765619217"><g><svg></svg></g><g id="icon-0"><svg viewBox="0 0 78.00869765619217 78.00869765619217" height="78.00869765619217" width="78.00869765619217"><g><path d="M0 39.004c0-21.542 17.463-39.004 39.004-39.004 21.542 0 39.004 17.463 39.005 39.004 0 21.542-17.463 39.004-39.005 39.005-21.542 0-39.004-17.463-39.004-39.005zM39.004 75.119c19.946 0 36.115-16.169 36.115-36.115 0-19.946-16.169-36.115-36.115-36.115-19.946 0-36.115 16.169-36.115 36.115 0 19.946 16.169 36.115 36.115 36.115z" data-fill-palette-color="accent" fill="#77d4fc" stroke="transparent"></path><ellipse rx="38.614305339815125" ry="38.614305339815125" cx="39.004348828096084" cy="39.004348828096084" fill="#77d4fc" stroke="transparent" stroke-width="0" fill-opacity="1" data-fill-palette-color="accent"></ellipse></g><g transform="matrix(1,0,0,1,16.432603951347183,29.26867768433072)"><svg viewBox="0 0 45.1434897534978 19.47134228753073" height="19.47134228753073" width="45.1434897534978"><g><svg xmlns="http://www.w3.org/2000/svg" xmlns:xlink="http://www.w3.org/1999/xlink" version="1.1" x="0" y="0" viewBox="20.385 36.201 47.693 20.570999999999998" enable-background="new 0 0 85 96" xml:space="preserve" height="19.47134228753073" width="45.1434897534978" class="icon-cg-0" data-fill-palette-color="quaternary" id="cg-0"><polygon points="35.166,41.838 37.452,44.124 33.184,50.22 47.355,36.201 68.078,56.772 20.385,56.772 " fill="#ffffff" data-fill-palette-color="quaternary"></polygon><polygon fill="#ffffff" points="47.355,41.381 53.068,46.486 50.861,47.323 58.783,53.267 49.777,51.049 52.078,49.914   47.355,46.486 49.945,45.8 " data-fill-palette-color="quaternary"></polygon></svg></g></svg></g></svg></g></svg></g><g></g></svg></g></svg></g></svg></g><defs></defs></svg><rect width="395.52" height="247.2" fill="none" stroke="none" visibility="hidden"></rect></g></svg></g></svg>